<?xml version="1.0" encoding="UTF-8"?>
<svg version="1.1" xmlns="http://www.w3.org/2000/svg" width="236" height="187">
<path d="M0 0 C77.88 0 155.76 0 236 0 C236 61.71 236 123.42 236 187 C158.12 187 80.24 187 0 187 C0 125.29 0 63.58 0 0 Z " fill="#FAF9F7" transform="translate(0,0)"/>
<path d="M0 0 C77.88 0 155.76 0 236 0 C236 61.71 236 123.42 236 187 C158.12 187 80.24 187 0 187 C0 125.29 0 63.58 0 0 Z M63 28 C61.79730469 28.96679688 61.79730469 28.96679688 60.5703125 29.953125 C51.00658727 37.99737986 44.11942973 47.74381874 39.0625 59.125 C38.65704956 60.0368103 38.65704956 60.0368103 38.2434082 60.96704102 C33.82658291 71.58728833 32.46854281 81.92650475 32.5625 93.375 C32.56934814 94.65560303 32.57619629 95.93620605 32.58325195 97.25561523 C32.73556537 106.19646961 33.53128645 113.69334386 37 122 C37.350625 123.0003125 37.70125 124.000625 38.0625 125.03125 C46.18874533 146.92696657 64.0652787 163.27415439 84.80419922 173.06054688 C90.33735787 175.4278578 96.11920979 176.78328478 102 178 C103.18227173 178.26043091 103.18227173 178.26043091 104.38842773 178.52612305 C125.98061929 182.44408545 148.49737426 176.79483 166.625 164.875 C185.32761596 151.30419939 199.25049937 131.75662548 203.3828125 108.796875 C206.85391334 85.21698885 201.97297063 62.3785724 188 43 C185.15218525 39.50406189 182.14102148 36.23256309 179 33 C178.13955078 32.04673828 178.13955078 32.04673828 177.26171875 31.07421875 C165.15282246 18.04053802 144.60015653 8.80184375 126.87207031 7.890625 C102.88608507 7.08741076 81.66585767 12.26084475 63 28 Z " fill="#FCFBF9" transform="translate(0,0)"/>
<path d="M0 0 C2.50487516 2.21527248 4.93378041 4.49119595 7.3515625 6.80078125 C7.96644531 7.34089844 8.58132812 7.88101563 9.21484375 8.4375 C22.67939303 20.72583578 31.35151419 41.04916116 32.49365234 59.03881836 C33.52537563 84.8502307 27.15427468 106.36780076 9.671875 125.82421875 C-5.13767028 141.7140956 -25.17902158 152.05833101 -47.046875 153.1171875 C-71.87531066 153.85213743 -92.77310301 147.13416525 -111.6484375 130.80078125 C-112.32132813 130.2284375 -112.99421875 129.65609375 -113.6875 129.06640625 C-125.95574464 117.7504911 -133.36850972 101.60359152 -137.6484375 85.80078125 C-137.8242334 85.21079346 -138.0000293 84.62080566 -138.18115234 84.01293945 C-143.06108665 60.91101429 -136.93695529 37.9328706 -124.55078125 18.51171875 C-111.9183053 0.76664364 -92.28838704 -13.16465189 -70.6484375 -17.19921875 C-45.58253119 -20.66574777 -19.90681128 -16.53028725 0 0 Z M-77.6484375 -11.19921875 C-78.74414062 -10.82410156 -79.83984375 -10.44898438 -80.96875 -10.0625 C-87.39856406 -7.74102955 -93.01388051 -5.06607159 -98.6484375 -1.19921875 C-94.26419798 2.24554087 -91.34007983 4.1169836 -85.6484375 3.80078125 C-85.6484375 2.81078125 -85.6484375 1.82078125 -85.6484375 0.80078125 C-86.9684375 0.80078125 -88.2884375 0.80078125 -89.6484375 0.80078125 C-89.6484375 0.14078125 -89.6484375 -0.51921875 -89.6484375 -1.19921875 C-90.6384375 -1.52921875 -91.6284375 -1.85921875 -92.6484375 -2.19921875 C-89.91596402 -3.56545549 -87.66644848 -3.32764475 -84.6484375 -3.19921875 C-84.1534375 -2.70421875 -84.1534375 -2.70421875 -83.6484375 -2.19921875 C-81.31546317 -2.15828938 -78.98138525 -2.15680152 -76.6484375 -2.19921875 C-77.4734375 -1.74546875 -78.2984375 -1.29171875 -79.1484375 -0.82421875 C-79.9734375 -0.28796875 -80.7984375 0.24828125 -81.6484375 0.80078125 C-81.6484375 1.46078125 -81.6484375 2.12078125 -81.6484375 2.80078125 C-78.6784375 2.47078125 -75.7084375 2.14078125 -72.6484375 1.80078125 C-73.1434375 -0.17921875 -73.1434375 -0.17921875 -73.6484375 -2.19921875 C-71.9984375 -2.19921875 -70.3484375 -2.19921875 -68.6484375 -2.19921875 C-68.9784375 -0.87921875 -69.3084375 0.44078125 -69.6484375 1.80078125 C-68.6584375 1.80078125 -67.6684375 1.80078125 -66.6484375 1.80078125 C-65.9884375 0.48078125 -65.3284375 -0.83921875 -64.6484375 -2.19921875 C-54.67554302 -2.59031265 -54.67554302 -2.59031265 -50.6484375 -0.19921875 C-50.1534375 1.28578125 -50.1534375 1.28578125 -49.6484375 2.80078125 C-48.9884375 2.80078125 -48.3284375 2.80078125 -47.6484375 2.80078125 C-47.9784375 3.46078125 -48.3084375 4.12078125 -48.6484375 4.80078125 C-50.7109375 5.42578125 -50.7109375 5.42578125 -52.6484375 5.80078125 C-52.6484375 6.46078125 -52.6484375 7.12078125 -52.6484375 7.80078125 C-54.9584375 7.14078125 -57.2684375 6.48078125 -59.6484375 5.80078125 C-58.3284375 5.14078125 -57.0084375 4.48078125 -55.6484375 3.80078125 C-56.1434375 2.31578125 -56.1434375 2.31578125 -56.6484375 0.80078125 C-62.48261045 1.33127344 -62.48261045 1.33127344 -67.6484375 3.80078125 C-68.45372639 5.85078996 -68.45372639 5.85078996 -68.6484375 7.80078125 C-69.3084375 7.80078125 -69.9684375 7.80078125 -70.6484375 7.80078125 C-70.6484375 7.14078125 -70.6484375 6.48078125 -70.6484375 5.80078125 C-75.64755674 6.27688784 -78.62676433 7.83240344 -82.6484375 10.80078125 C-82.00863901 12.83319852 -82.00863901 12.83319852 -80.6484375 14.80078125 C-78.09323829 15.61249353 -78.09323829 15.61249353 -75.6484375 15.80078125 C-75.6484375 17.45078125 -75.6484375 19.10078125 -75.6484375 20.80078125 C-72.37070246 20.04928102 -72.37070246 20.04928102 -70.6484375 16.80078125 C-69.6584375 16.47078125 -68.6684375 16.14078125 -67.6484375 15.80078125 C-67.6484375 13.49078125 -67.6484375 11.18078125 -67.6484375 8.80078125 C-64.6784375 8.80078125 -61.7084375 8.80078125 -58.6484375 8.80078125 C-58.6484375 10.12078125 -58.6484375 11.44078125 -58.6484375 12.80078125 C-56.6684375 12.14078125 -54.6884375 11.48078125 -52.6484375 10.80078125 C-52.6484375 12.45078125 -52.6484375 14.10078125 -52.6484375 15.80078125 C-51.1634375 16.29578125 -51.1634375 16.29578125 -49.6484375 16.80078125 C-49.6484375 18.12078125 -49.6484375 19.44078125 -49.6484375 20.80078125 C-50.6384375 20.80078125 -51.6284375 20.80078125 -52.6484375 20.80078125 C-52.87453087 22.92442606 -52.87453087 22.92442606 -51.1484375 24.42578125 C-50.6534375 24.87953125 -50.1584375 25.33328125 -49.6484375 25.80078125 C-51.6284375 25.30578125 -51.6284375 25.30578125 -53.6484375 24.80078125 C-53.6484375 23.48078125 -53.6484375 22.16078125 -53.6484375 20.80078125 C-56.9484375 20.80078125 -60.2484375 20.80078125 -63.6484375 20.80078125 C-63.6484375 21.46078125 -63.6484375 22.12078125 -63.6484375 22.80078125 C-62.6584375 22.80078125 -61.6684375 22.80078125 -60.6484375 22.80078125 C-60.6484375 23.46078125 -60.6484375 24.12078125 -60.6484375 24.80078125 C-62.2984375 24.80078125 -63.9484375 24.80078125 -65.6484375 24.80078125 C-65.8753125 25.41953125 -66.1021875 26.03828125 -66.3359375 26.67578125 C-67.6484375 28.80078125 -67.6484375 28.80078125 -69.98046875 29.66015625 C-73.13512908 31.00885437 -74.47948943 32.54330798 -76.6484375 35.17578125 C-78.92239087 37.87610087 -80.77802397 39.89527139 -83.6484375 41.98828125 C-86.00860033 43.71841333 -86.00860033 43.71841333 -85.9609375 47.05078125 C-85.80625 48.41203125 -85.80625 48.41203125 -85.6484375 49.80078125 C-86.3084375 49.80078125 -86.9684375 49.80078125 -87.6484375 49.80078125 C-87.9784375 48.15078125 -88.3084375 46.50078125 -88.6484375 44.80078125 C-97.23334949 44.11234239 -97.23334949 44.11234239 -104.6484375 47.80078125 C-107.08612968 51.45731952 -106.88788189 53.49078226 -106.6484375 57.80078125 C-105.6159013 59.04154913 -105.6159013 59.04154913 -103.3984375 59.05078125 C-100.12897634 58.75355751 -98.32835514 57.63843906 -95.6484375 55.80078125 C-95.9784375 57.45078125 -96.3084375 59.10078125 -96.6484375 60.80078125 C-94.9984375 60.80078125 -93.3484375 60.80078125 -91.6484375 60.80078125 C-91.6484375 63.44078125 -91.6484375 66.08078125 -91.6484375 68.80078125 C-88.29385595 69.56600926 -88.29385595 69.56600926 -84.6484375 69.80078125 C-82.64358974 68.63194019 -82.64358974 68.63194019 -81.6484375 66.80078125 C-81.6484375 66.14078125 -81.6484375 65.48078125 -81.6484375 64.80078125 C-79.3384375 65.13078125 -77.0284375 65.46078125 -74.6484375 65.80078125 C-74.6484375 66.46078125 -74.6484375 67.12078125 -74.6484375 67.80078125 C-73.3903125 67.69765625 -72.1321875 67.59453125 -70.8359375 67.48828125 C-68.6015625 67.46875 -68.6015625 67.46875 -66.6484375 67.80078125 C-65.61830473 69.44899369 -64.61729122 71.11581827 -63.6484375 72.80078125 C-60.02244328 73.21803803 -60.02244328 73.21803803 -56.6484375 72.80078125 C-56.1534375 76.76078125 -56.1534375 76.76078125 -55.6484375 80.80078125 C-51.62641843 82.74691951 -48.03074172 83.13044271 -43.63671875 83.359375 C-41.6484375 83.80078125 -41.6484375 83.80078125 -39.6484375 86.80078125 C-38.6584375 86.80078125 -37.6684375 86.80078125 -36.6484375 86.80078125 C-37.2671875 87.72890625 -37.8859375 88.65703125 -38.5234375 89.61328125 C-40.92181312 93.74052128 -41.57168477 97.86305691 -42.25390625 102.54296875 C-42.6484375 104.80078125 -42.6484375 104.80078125 -43.6484375 105.80078125 C-45.97661714 106.16838856 -48.310276 106.50319706 -50.6484375 106.80078125 C-50.7928125 107.52265625 -50.9371875 108.24453125 -51.0859375 108.98828125 C-51.2715625 109.91640625 -51.4571875 110.84453125 -51.6484375 111.80078125 C-51.7515625 112.60515625 -51.8546875 113.40953125 -51.9609375 114.23828125 C-52.86081856 117.5923834 -54.69070844 119.95891648 -56.6484375 122.80078125 C-56.6484375 123.46078125 -56.6484375 124.12078125 -56.6484375 124.80078125 C-59.6184375 125.79078125 -62.5884375 126.78078125 -65.6484375 127.80078125 C-64.9884375 128.13078125 -64.3284375 128.46078125 -63.6484375 128.80078125 C-64.3084375 130.45078125 -64.9684375 132.10078125 -65.6484375 133.80078125 C-64.3284375 134.13078125 -63.0084375 134.46078125 -61.6484375 134.80078125 C-61.8753125 135.70828125 -62.1021875 136.61578125 -62.3359375 137.55078125 C-62.97449295 140.79581626 -62.97449295 140.79581626 -61.2109375 143.17578125 C-60.6953125 143.71203125 -60.1796875 144.24828125 -59.6484375 144.80078125 C-65.09356037 143.64892833 -67.57313126 142.47069072 -70.6484375 137.80078125 C-71.3084375 136.81078125 -71.9684375 135.82078125 -72.6484375 134.80078125 C-72.9921875 132.85546875 -72.9921875 132.85546875 -73.1484375 130.67578125 C-73.42687706 127.57316906 -73.87184635 124.69078218 -74.6484375 121.67578125 C-75.97662287 116.23792086 -75.98447684 110.72557236 -76.109375 105.15625 C-76.39451722 101.75905772 -76.39451722 101.75905772 -78.4375 99.3515625 C-80.74413171 97.41795545 -80.74413171 97.41795545 -84.6484375 97.80078125 C-84.7309375 97.07890625 -84.8134375 96.35703125 -84.8984375 95.61328125 C-85.45541225 92.67858022 -85.45541225 92.67858022 -87.6484375 90.55078125 C-90.38682463 86.78549895 -90.44991083 83.35696833 -90.6484375 78.80078125 C-88.6684375 77.81078125 -88.6684375 77.81078125 -86.6484375 76.80078125 C-86.6484375 74.82078125 -86.6484375 72.84078125 -86.6484375 70.80078125 C-87.7209375 70.55328125 -88.7934375 70.30578125 -89.8984375 70.05078125 C-93.78815477 68.75420883 -94.85517351 67.59404524 -97.6484375 64.80078125 C-100.79325541 63.99762471 -100.79325541 63.99762471 -103.6484375 63.80078125 C-103.6484375 63.14078125 -103.6484375 62.48078125 -103.6484375 61.80078125 C-104.34710938 61.71441406 -105.04578125 61.62804687 -105.765625 61.5390625 C-108.48238385 61.11961956 -111.03081812 60.64433301 -113.6484375 59.80078125 C-115.1484375 57.48828125 -115.1484375 57.48828125 -115.6484375 54.80078125 C-116.79488319 51.79136132 -117.84655691 49.50360213 -119.6484375 46.80078125 C-120.03343641 45.14528594 -120.37636885 43.47853795 -120.6484375 41.80078125 C-121.3084375 41.80078125 -121.9684375 41.80078125 -122.6484375 41.80078125 C-123.26372516 46.87690443 -121.26502099 49.63060131 -118.6484375 53.80078125 C-121.6484375 52.80078125 -121.6484375 52.80078125 -123.2734375 50.67578125 C-124.85782615 47.36296863 -125.29183036 44.43817409 -125.6484375 40.80078125 C-126.6384375 40.47078125 -127.6284375 40.14078125 -128.6484375 39.80078125 C-129.3359375 37.73828125 -129.3359375 37.73828125 -129.6484375 35.80078125 C-130.29807773 37.69531346 -130.94298865 39.59146774 -131.5859375 41.48828125 C-131.94558594 42.54402344 -132.30523437 43.59976563 -132.67578125 44.6875 C-138.96173856 64.80761235 -135.22461506 87.87595629 -125.77661133 106.23413086 C-122.90403954 111.56270217 -119.74347981 116.32080496 -115.6484375 120.80078125 C-114.85953125 121.68121094 -114.070625 122.56164062 -113.2578125 123.46875 C-98.42729685 139.1882293 -79.31115773 148.3625177 -57.59765625 149.00390625 C-47.87821078 149.14732288 -38.91788226 149.07079875 -29.6484375 145.80078125 C-28.60816406 145.46046875 -27.56789063 145.12015625 -26.49609375 144.76953125 C-12.67157107 139.90382529 2.02358558 131.29274662 10.3515625 118.80078125 C10.72726106 115.04379568 10.515786 114.04711649 8.3515625 110.80078125 C8.0078125 108.828125 8.0078125 108.828125 7.8515625 106.73828125 C7.75994365 102.80089723 7.75994365 102.80089723 5.3515625 100.80078125 C5.65784359 97.98299527 6.06484965 95.48448113 7.1640625 92.86328125 C7.43432319 89.89041371 5.87925448 88.25203404 4.34375 85.81640625 C2.62771171 82.33028122 2.5254563 78.63513956 2.3515625 74.80078125 C-2.10299976 72.90477295 -5.25052984 72.76280398 -9.91821289 73.33886719 C-19.14948059 74.47471228 -19.14948059 74.47471228 -23.08984375 72.703125 C-26.57495683 69.15082902 -26.95421672 65.72761399 -27.0234375 60.86328125 C-26.9279383 59.17385497 -26.81288977 57.48489428 -26.6484375 55.80078125 C-27.3084375 55.80078125 -27.9684375 55.80078125 -28.6484375 55.80078125 C-28.3984375 53.94921875 -28.3984375 53.94921875 -27.6484375 51.80078125 C-25.67008529 50.41081827 -23.62454331 49.41391949 -21.4609375 48.33984375 C-18.87511558 46.14412427 -18.9374694 44.07948688 -18.6484375 40.80078125 C-11.64214626 38.91583995 -4.88433723 37.40377289 2.3515625 36.80078125 C2.3515625 38.45078125 2.3515625 40.10078125 2.3515625 41.80078125 C5.6515625 42.46078125 8.9515625 43.12078125 12.3515625 43.80078125 C12.3515625 43.14078125 12.3515625 42.48078125 12.3515625 41.80078125 C13.4034375 42.13078125 14.4553125 42.46078125 15.5390625 42.80078125 C18.74029607 43.64044907 21.0926633 43.99829029 24.3515625 43.80078125 C23.89138148 39.65915211 23.49650165 37.55260301 20.3515625 34.80078125 C20.0215625 33.81078125 19.6915625 32.82078125 19.3515625 31.80078125 C18.3615625 32.13078125 17.3715625 32.46078125 16.3515625 32.80078125 C16.3515625 33.79078125 16.3515625 34.78078125 16.3515625 35.80078125 C12.96174679 33.54090411 12.72582062 32.46546956 11.3515625 28.80078125 C10.6915625 28.14078125 10.0315625 27.48078125 9.3515625 26.80078125 C8.0315625 26.80078125 6.7115625 26.80078125 5.3515625 26.80078125 C5.6815625 28.12078125 6.0115625 29.44078125 6.3515625 30.80078125 C7.6715625 31.13078125 8.9915625 31.46078125 10.3515625 31.80078125 C10.0215625 33.12078125 9.6915625 34.44078125 9.3515625 35.80078125 C8.0315625 36.13078125 6.7115625 36.46078125 5.3515625 36.80078125 C5.3515625 36.14078125 5.3515625 35.48078125 5.3515625 34.80078125 C6.3415625 34.47078125 7.3315625 34.14078125 8.3515625 33.80078125 C7.145 32.87265625 7.145 32.87265625 5.9140625 31.92578125 C3.3515625 29.80078125 3.3515625 29.80078125 2.3515625 27.80078125 C-1.03427233 28.36160693 -1.03427233 28.36160693 -4.6484375 29.80078125 C-5.2671875 30.81140625 -5.8859375 31.82203125 -6.5234375 32.86328125 C-8.6484375 35.80078125 -8.6484375 35.80078125 -10.890625 36.4140625 C-13.1547503 36.65034972 -15.37269289 36.79105585 -17.6484375 36.80078125 C-17.6484375 34.16078125 -17.6484375 31.52078125 -17.6484375 28.80078125 C-14.6784375 28.80078125 -11.7084375 28.80078125 -8.6484375 28.80078125 C-9.1434375 25.83078125 -9.1434375 25.83078125 -9.6484375 22.80078125 C-8.4728125 22.64609375 -8.4728125 22.64609375 -7.2734375 22.48828125 C-4.31798569 22.02483103 -4.31798569 22.02483103 -2.6484375 18.80078125 C0.9765625 18.11328125 0.9765625 18.11328125 4.3515625 17.80078125 C4.3515625 16.48078125 4.3515625 15.16078125 4.3515625 13.80078125 C2.3715625 14.29578125 2.3715625 14.29578125 0.3515625 14.80078125 C0.0215625 13.81078125 -0.3084375 12.82078125 -0.6484375 11.80078125 C-1.3084375 11.80078125 -1.9684375 11.80078125 -2.6484375 11.80078125 C-2.3184375 10.81078125 -1.9884375 9.82078125 -1.6484375 8.80078125 C-0.6584375 8.47078125 0.3315625 8.14078125 1.3515625 7.80078125 C1.3515625 7.14078125 1.3515625 6.48078125 1.3515625 5.80078125 C-18.95114171 -12.223048 -51.63246881 -20.66299867 -77.6484375 -11.19921875 Z " fill="#070707" transform="translate(171.6484375,26.19921875)"/>
<path d="M0 0 C0 1.65 0 3.3 0 5 C4.95 5.99 4.95 5.99 10 7 C10 6.34 10 5.68 10 5 C14.46839215 4.78721942 17.82262526 5.40861915 22 7 C21.505 4.03 21.505 4.03 21 1 C21.99 1 22.98 1 24 1 C26.26655398 3.26655398 26.67309078 4.64674493 27.5625 7.6875 C27.81128906 8.51636719 28.06007812 9.34523438 28.31640625 10.19921875 C33.79851301 32.66019331 29.40555799 55.30759128 18 75 C14.41100156 80.86922678 14.41100156 80.86922678 11.25 81.875 C10.5075 81.91625 9.765 81.9575 9 82 C8.566875 80.8553125 8.566875 80.8553125 8.125 79.6875 C7.03730987 76.84970692 7.03730987 76.84970692 5 74 C4.65625 72.02734375 4.65625 72.02734375 4.5 69.9375 C4.40838115 66.00011598 4.40838115 66.00011598 2 64 C2.30628109 61.18221402 2.71328715 58.68369988 3.8125 56.0625 C4.08443941 53.07116654 2.47192555 51.4597019 0.92578125 49.015625 C-0.70429675 45.46659442 -0.31181548 41.81973959 0 38 C-0.804375 38.020625 -1.60875 38.04125 -2.4375 38.0625 C-5 38 -5 38 -6 37 C-7.92745719 37.21720798 -9.85462401 37.43759599 -11.77954102 37.67626953 C-21.53259716 38.76253684 -21.53259716 38.76253684 -25.68359375 36.60546875 C-29.02954337 33.07865699 -30.36594654 29.98246646 -30.5 25.125 C-30.32945556 22.67768736 -30.10059562 21.20119125 -29 19 C-29.66 19 -30.32 19 -31 19 C-30.875 16.75 -30.875 16.75 -30 14 C-24.91891892 10 -24.91891892 10 -22 10 C-22.061875 9.05125 -22.12375 8.1025 -22.1875 7.125 C-22.125625 6.09375 -22.06375 5.0625 -22 4 C-15.52682323 -0.31545118 -7.56166317 -0.24392462 0 0 Z " fill="#040404" transform="translate(174,63)"/>
<path d="M0 0 C2.31 0.33 4.62 0.66 7 1 C7 1.66 7 2.32 7 3 C9.64 2.67 12.28 2.34 15 2 C18 5.75 18 5.75 18 8 C20.31 8 22.62 8 25 8 C26.35439668 10.70879335 26.06501451 13.00933268 26 16 C27.48113281 16.16435547 27.48113281 16.16435547 28.9921875 16.33203125 C30.91417969 16.56986328 30.91417969 16.56986328 32.875 16.8125 C34.15117188 16.96332031 35.42734375 17.11414063 36.7421875 17.26953125 C40 18 40 18 42 21 C42.99 21.33 43.98 21.66 45 22 C44.46487115 24.67564426 43.63739512 26.80075245 42.5 29.3125 C41.01722964 32.9576438 40.53150691 36.12759248 40 40 C38 42 38 42 34.375 42.125 C33.26125 42.08375 32.1475 42.0425 31 42 C31.12375 43.299375 31.2475 44.59875 31.375 45.9375 C31.3564843 51.79771828 29.08578673 55.87147491 25 60 C22.2974821 61.52561494 20.04009206 62.2137693 17 63 C17.185625 63.61875 17.37125 64.2375 17.5625 64.875 C18 67 18 67 17 69 C18.485 69.495 18.485 69.495 20 70 C19.95875 70.9075 19.9175 71.815 19.875 72.75 C19.99531556 75.8782046 20.3914708 77.38614006 22 80 C19.375 80.4375 19.375 80.4375 16 80 C11.77161614 76.30760846 7.90744085 71.55879983 7.5 65.875 C7.22156044 62.77238781 6.77659115 59.89000093 6 56.875 C4.67159606 51.40624217 4.6167489 45.85746498 4.44140625 40.2578125 C4.27026808 37.04888719 4.27026808 37.04888719 2.59375 35.078125 C1.02613024 33.86160334 1.02613024 33.86160334 -1.0625 33.625 C-1.701875 33.41875 -2.34125 33.2125 -3 33 C-3.72904086 31.35965807 -4.38655243 29.68698082 -5 28 C-5.721875 27.236875 -6.44375 26.47375 -7.1875 25.6875 C-9.14918067 22.77880107 -9.25007644 22.14264134 -8.9375 18.8125 C-8 15 -8 15 -5 13 C-4.29508733 10.67793475 -3.62787571 8.34406932 -3 6 C-2.34 5.34 -1.68 4.68 -1 4 C-0.3574765 1.93125966 -0.3574765 1.93125966 0 0 Z " fill="#050505" transform="translate(90,91)"/>
<path d="M0 0 C1.32 0.66 2.64 1.32 4 2 C3.97905273 2.86052979 3.95810547 3.72105957 3.93652344 4.60766602 C3.39946155 29.99063851 4.97355826 53.21943246 23 73 C23.71542969 73.80695313 24.43085937 74.61390625 25.16796875 75.4453125 C38.89178526 90.08703518 57.41829591 99.10215252 77.50512695 100.12792969 C88.01341715 100.43833089 97.97444693 100.53675272 108 97 C109.04027344 96.6596875 110.08054687 96.319375 111.15234375 95.96875 C123.78293577 91.5232622 139.06910615 83.64414912 146.34765625 71.80859375 C147.29031814 69.75639504 147.29031814 69.75639504 148 67 C148.33 68.32 148.66 69.64 149 71 C150.32 70.67 151.64 70.34 153 70 C141.87309854 87.51076888 123.42642298 98.72421085 103.5625 103.875 C80.57833057 108.18775988 56.82568258 104.57887942 37.10644531 91.77001953 C33.21377375 89.05811804 29.58614799 86.10319969 26 83 C24.99066406 82.14148438 24.99066406 82.14148438 23.9609375 81.265625 C11.69269286 69.94970985 4.27992778 53.80281027 0 38 C-0.17797119 37.41726318 -0.35594238 36.83452637 -0.53930664 36.23413086 C-1.14963716 33.2743351 -1.12987971 30.46322403 -1.1328125 27.44140625 C-1.13410156 26.16845703 -1.13539062 24.89550781 -1.13671875 23.58398438 C-1.13462402 22.92358154 -1.1325293 22.26317871 -1.13037109 21.58276367 C-1.12502706 19.5726768 -1.13032271 17.56281426 -1.13671875 15.55273438 C-1.13542969 14.27849609 -1.13414063 13.00425781 -1.1328125 11.69140625 C-1.13168457 10.52810791 -1.13055664 9.36480957 -1.12939453 8.16625977 C-1.01309199 5.32035847 -0.65323949 2.76572649 0 0 Z " fill="#1B1B1A" transform="translate(34,74)"/>
<path d="M0 0 C0.928125 0.845625 1.85625 1.69125 2.8125 2.5625 C2.1525 2.8925 1.4925 3.2225 0.8125 3.5625 C0.3175 5.0475 0.3175 5.0475 -0.1875 6.5625 C-0.1875 5.9025 -0.1875 5.2425 -0.1875 4.5625 C-0.75726563 4.29953125 -1.32703125 4.0365625 -1.9140625 3.765625 C-4.34154764 2.48097651 -6.37426577 0.97047952 -8.5625 -0.6875 C-26.80645436 -13.51694744 -49.11808432 -16.93115609 -70.8671875 -13.9296875 C-73.73792003 -13.26721076 -76.42062631 -12.446548 -79.1875 -11.4375 C-80.84845703 -10.85742188 -80.84845703 -10.85742188 -82.54296875 -10.265625 C-88.41930738 -8.11428747 -93.88658821 -5.7659795 -99.1875 -2.4375 C-98.5275 -1.7775 -97.8675 -1.1175 -97.1875 -0.4375 C-98.5075 -0.4375 -99.8275 -0.4375 -101.1875 -0.4375 C-101.1875 -2.4175 -101.1875 -4.3975 -101.1875 -6.4375 C-68.18011688 -23.89454986 -29.87129057 -25.28943923 0 0 Z " fill="#131311" transform="translate(173.1875,27.4375)"/>
<path d="M0 0 C0.495 1.98 0.495 1.98 1 4 C2.32 3.67 3.64 3.34 5 3 C-6.12690146 20.51076888 -24.57357702 31.72421085 -44.4375 36.875 C-57.05079824 39.26938882 -75.13047641 40.88631476 -87 35 C-87.495 33.515 -87.495 33.515 -88 32 C-87.16082031 32.0721875 -86.32164063 32.144375 -85.45703125 32.21875 C-62.43169917 34.2349651 -62.43169917 34.2349651 -40 30 C-38.95972656 29.6596875 -37.91945312 29.319375 -36.84765625 28.96875 C-24.21706423 24.5232622 -8.93089385 16.64414912 -1.65234375 4.80859375 C-0.70968186 2.75639504 -0.70968186 2.75639504 0 0 Z " fill="#121110" transform="translate(182,141)"/>
<path d="M0 0 C4.75 0.75 4.75 0.75 7 3 C7.33 3.845625 7.66 4.69125 8 5.5625 C8.74870114 8.14841441 8.74870114 8.14841441 11 9 C11.33 7.68 11.66 6.36 12 5 C12.66 5 13.32 5 14 5 C15.05771739 6.63064764 16.05273046 8.30280873 17 10 C17.66 10.99 18.32 11.98 19 13 C19 14.32 19 15.64 19 17 C14.66831683 17.26252625 11.1196377 16.29243536 7 15 C7 15.66 7 16.32 7 17 C3.7 16.34 0.4 15.68 -3 15 C-3 13.35 -3 11.7 -3 10 C-4.45880109 10.14107747 -5.91703551 10.28802415 -7.375 10.4375 C-8.18710938 10.51871094 -8.99921875 10.59992187 -9.8359375 10.68359375 C-12.04272805 10.89090114 -12.04272805 10.89090114 -14 12 C-16.6723621 12.13415472 -19.32250488 12.04318541 -22 12 C-22 11.34 -22 10.68 -22 10 C-20.14375 9.938125 -20.14375 9.938125 -18.25 9.875 C-16.02830739 9.68104679 -16.02830739 9.68104679 -14 9 C-12.61876037 7.03277992 -11.28511874 5.03131672 -10 3 C-6.25 1.625 -6.25 1.625 -3 1 C1.875 5.75 1.875 5.75 3 8 C2.01 8 1.02 8 0 8 C0 8.66 0 9.32 0 10 C1.32 9.67 2.64 9.34 4 9 C4.33 7.68 4.66 6.36 5 5 C3.35 4.34 1.7 3.68 0 3 C0 2.01 0 1.02 0 0 Z " fill="#E7E7E6" transform="translate(177,53)"/>
<path d="M0 0 C0 0.66 0 1.32 0 2 C-1.98 2.99 -1.98 2.99 -4 4 C-1.69 4.66 0.62 5.32 3 6 C2.25 7.9375 2.25 7.9375 1 10 C-1.125 10.75 -1.125 10.75 -3 11 C-3 9.68 -3 8.36 -3 7 C-5.97 7 -8.94 7 -12 7 C-12 9.31 -12 11.62 -12 14 C-12.61875 14.268125 -13.2375 14.53625 -13.875 14.8125 C-16.2995233 15.95556848 -16.2995233 15.95556848 -18 19 C-18.66 19 -19.32 19 -20 19 C-20 17.35 -20 15.7 -20 14 C-20.78375 13.9175 -21.5675 13.835 -22.375 13.75 C-25 13 -25 13 -26.1640625 10.953125 C-26.43992187 10.30859375 -26.71578125 9.6640625 -27 9 C-25.75747321 8.15556432 -24.5056114 7.3248542 -23.25 6.5 C-22.20585938 5.80390625 -22.20585938 5.80390625 -21.140625 5.09375 C-19 4 -19 4 -15 4 C-15 4.66 -15 5.32 -15 6 C-14.34 6 -13.68 6 -13 6 C-12.979375 5.401875 -12.95875 4.80375 -12.9375 4.1875 C-12 2 -12 2 -8.75 0.1875 C-5.10046759 -0.96818526 -3.55083942 -1.18361314 0 0 Z " fill="#EBEAE9" transform="translate(116,28)"/>
<path d="M0 0 C-0.99 1.485 -0.99 1.485 -2 3 C1.00617269 6.00617269 3.82381598 5.59585316 8 6 C9 9 9 9 8 12 C7.01 12 6.02 12 5 12 C5.33 10.68 5.66 9.36 6 8 C4.35 8 2.7 8 1 8 C1.33 9.32 1.66 10.64 2 12 C-2.455 12.495 -2.455 12.495 -7 13 C-7 12.34 -7 11.68 -7 11 C-4.5 9.375 -4.5 9.375 -2 8 C-3.134375 8.020625 -4.26875 8.04125 -5.4375 8.0625 C-9 8 -9 8 -10 7 C-14.14276875 6.75266863 -14.14276875 6.75266863 -18 8 C-17.01 8.33 -16.02 8.66 -15 9 C-15 9.66 -15 10.32 -15 11 C-13.68 11 -12.36 11 -11 11 C-11 11.99 -11 12.98 -11 14 C-16.11476819 14.63934602 -19.67254378 12.40533547 -24 10 C-21.46491767 7.08160626 -18.63451212 5.63282294 -15.1875 3.9375 C-14.17042969 3.43089844 -13.15335938 2.92429687 -12.10546875 2.40234375 C-3.90384615 -1.30128205 -3.90384615 -1.30128205 0 0 Z " fill="#F2F3F0" transform="translate(97,16)"/>
<path d="M0 0 C0.66 0.66 1.32 1.32 2 2 C1.34 3.32 0.68 4.64 0 6 C1.65 6 3.3 6 5 6 C5 8.64 5 11.28 5 14 C10.32170494 14.29562367 10.32170494 14.29562367 15 12 C14.731875 12.495 14.46375 12.99 14.1875 13.5 C12.82819726 16.36168999 11.8564504 19.28213277 10.87890625 22.29296875 C10 24 10 24 7 25 C7 26.65 7 28.3 7 30 C6.67 30 6.34 30 6 30 C5.8125 27.125 5.8125 27.125 6 24 C6.99 23.34 7.98 22.68 9 22 C9.73343428 18.93443402 9.73343428 18.93443402 10 16 C9.113125 16.103125 8.22625 16.20625 7.3125 16.3125 C2.944031 15.90038028 1.9647953 14.11303506 -1 11 C-4.16701423 9.66436389 -4.16701423 9.66436389 -7 9 C-7 8.34 -7 7.68 -7 7 C-7.99 6.67 -8.98 6.34 -10 6 C-8.27473958 5.0234375 -6.54947917 4.046875 -4.82421875 3.0703125 C-3.18017711 2.10571419 -1.58599412 1.05732941 0 0 Z " fill="#1E1E1D" transform="translate(75,81)"/>
<path d="M0 0 C4.2762426 0.02732423 7.12681442 0.9818858 10.8125 3.25 C10.8125 4.24 10.8125 5.23 10.8125 6.25 C11.4725 6.25 12.1325 6.25 12.8125 6.25 C12.4825 7.24 12.1525 8.23 11.8125 9.25 C10.4925 9.25 9.1725 9.25 7.8125 9.25 C7.8125 9.91 7.8125 10.57 7.8125 11.25 C5.1725 10.92 2.5325 10.59 -0.1875 10.25 C1.1875 8.75 1.1875 8.75 2.8125 7.25 C3.4725 7.25 4.1325 7.25 4.8125 7.25 C4.4825 6.59 4.1525 5.93 3.8125 5.25 C-1.73803286 5.99359673 -1.73803286 5.99359673 -7.1875 7.25 C-7.5175 6.59 -7.8475 5.93 -8.1875 5.25 C-7.5275 5.25 -6.8675 5.25 -6.1875 5.25 C-5.9709375 4.2909375 -5.9709375 4.2909375 -5.75 3.3125 C-4.77850963 -0.24963136 -3.45960269 0.06953975 0 0 Z " fill="#141414" transform="translate(111.1875,22.75)"/>
<path d="M0 0 C0.66 0.33 1.32 0.66 2 1 C1.05182664 4.69723975 0.25018754 5.83807577 -3.01171875 7.94921875 C-4.22896966 8.54528842 -5.4546829 9.12432965 -6.6875 9.6875 C-7.28755859 9.98205078 -7.88761719 10.27660156 -8.50585938 10.58007812 C-12.59968928 12.53684967 -16.63021561 13.8612757 -21 15 C-21 13.35 -21 11.7 -21 10 C-20.154375 9.69707031 -19.30875 9.39414063 -18.4375 9.08203125 C-10.59080279 6.18799735 -10.59080279 6.18799735 -3.3125 2.125 C-1.6728125 1.073125 -1.6728125 1.073125 0 0 Z " fill="#1B1B19" transform="translate(163,161)"/>
<path d="M0 0 C0.66 0.33 1.32 0.66 2 1 C2 1.99 2 2.98 2 4 C-4 7 -10 10 -16 13 C-15.34 13.66 -14.68 14.32 -14 15 C-15.32 15 -16.64 15 -18 15 C-18 13.02 -18 11.04 -18 9 C-12 6 -6 3 0 0 Z " fill="#161617" transform="translate(90,12)"/>
<path d="M0 0 C0 0.66 0 1.32 0 2 C-1.98 2.99 -1.98 2.99 -4 4 C-1.69 4.66 0.62 5.32 3 6 C2.25 7.9375 2.25 7.9375 1 10 C-1.125 10.75 -1.125 10.75 -3 11 C-3 9.68 -3 8.36 -3 7 C-4.093125 6.87625 -5.18625 6.7525 -6.3125 6.625 C-10 6 -10 6 -13 4 C-10.60208312 -0.79583375 -4.69308584 -1.56436195 0 0 Z " fill="#DCDDDD" transform="translate(116,28)"/>
<path d="M0 0 C0.33 0.33 0.66 0.66 1 1 C3.67058851 1.14115161 6.32432238 1.04247107 9 1 C7.6875 3 7.6875 3 6 5 C5.01 5 4.02 5 3 5 C3 5.66 3 6.32 3 7 C4.65 7 6.3 7 8 7 C8 7.33 8 7.66 8 8 C6.00045254 8.04254356 3.99958364 8.04080783 2 8 C1.67 7.67 1.34 7.34 1 7 C0.34 7.66 -0.32 8.32 -1 9 C-1 7.68 -1 6.36 -1 5 C-2.32 5 -3.64 5 -5 5 C-5 4.34 -5 3.68 -5 3 C-6.32 2.67 -7.64 2.34 -9 2 C-5.55892734 -0.29404844 -4.03160191 -0.26293056 0 0 Z " fill="#222221" transform="translate(87,22)"/>
<path d="M0 0 C0.99 0 1.98 0 3 0 C4.7890625 2.484375 4.7890625 2.484375 6.625 5.75 C7.23601563 6.81734375 7.84703125 7.8846875 8.4765625 8.984375 C10.76483629 13.51398363 10.76483629 13.51398363 11 16 C10.34 16.66 9.68 17.32 9 18 C7.8745809 16.39612733 6.74968028 14.79189084 5.625 13.1875 C4.99851562 12.29417969 4.37203125 11.40085938 3.7265625 10.48046875 C1.03396524 6.61214463 -0.2562369 4.74038257 0 0 Z " fill="#171615" transform="translate(42,129)"/>
<path d="M0 0 C3.35111834 2.23407889 4.81553956 3.26215824 5.8125 7.25 C5.874375 8.1575 5.93625 9.065 6 10 C4.35 10 2.7 10 1 10 C0.67 9.01 0.34 8.02 0 7 C-2.00016466 5.79117904 -2.00016466 5.79117904 -4 5 C-3.67 4.34 -3.34 3.68 -3 3 C-2.34 3 -1.68 3 -1 3 C-0.67 2.01 -0.34 1.02 0 0 Z " fill="#ECECEC" transform="translate(190,60)"/>
<path d="M0 0 C3.96 0.33 7.92 0.66 12 1 C13 4 13 4 12 7 C11.01 7 10.02 7 9 7 C9.33 5.68 9.66 4.36 10 3 C8.35 3 6.7 3 5 3 C5.33 4.32 5.66 5.64 6 7 C1.545 7.495 1.545 7.495 -3 8 C-3 7.34 -3 6.68 -3 6 C-0.5 4.375 -0.5 4.375 2 3 C1.34 3 0.68 3 0 3 C0 2.01 0 1.02 0 0 Z " fill="#DCDCDB" transform="translate(93,21)"/>
<path d="M0 0 C0 0.33 0 0.66 0 1 C-2.64 1.66 -5.28 2.32 -8 3 C-7.01 3.33 -6.02 3.66 -5 4 C-5 4.66 -5 5.32 -5 6 C-3.68 6 -2.36 6 -1 6 C-1 6.99 -1 7.98 -1 9 C-6.11476819 9.63934602 -9.67254378 7.40533547 -14 5 C-9.48166612 0.36447591 -6.58778358 -1.68524696 0 0 Z " fill="#C2C2C2" transform="translate(87,21)"/>
<path d="M0 0 C0 0.99 0 1.98 0 3 C-3.22515763 4.73662334 -6.51329166 5.8905928 -10 7 C-9.9375 4.6875 -9.9375 4.6875 -9 2 C-2.7826087 -1.39130435 -2.7826087 -1.39130435 0 0 Z " fill="#201F1E" transform="translate(92,13)"/>
<path d="M0 0 C0 3.28176588 -0.47835901 5.10888212 -2 8 C-3.32148827 8.37756808 -4.65835921 8.7018576 -6 9 C-8.12577266 10.54743745 -10.0283939 12.25244005 -12 14 C-12.66 13.67 -13.32 13.34 -14 13 C-13.32453125 12.39671875 -12.6490625 11.7934375 -11.953125 11.171875 C-11.06109375 10.37265625 -10.1690625 9.5734375 -9.25 8.75 C-8.36828125 7.96109375 -7.4865625 7.1721875 -6.578125 6.359375 C-4.32133835 4.29407328 -2.14260074 2.18264936 0 0 Z " fill="#D9D8D6" transform="translate(183,149)"/>
<path d="M0 0 C1 2 1 2 0.25 4.5 C-1 7 -1 7 -4 9 C-6.04296875 9.1953125 -6.04296875 9.1953125 -8.1875 9.125 C-10.0746875 9.063125 -10.0746875 9.063125 -12 9 C-12 8.34 -12 7.68 -12 7 C-10.14375 6.938125 -10.14375 6.938125 -8.25 6.875 C-4.40735288 6.43214173 -4.14481969 6.17740412 -1.5 2.9375 C-1.005 1.968125 -0.51 0.99875 0 0 Z " fill="#D2D2D2" transform="translate(167,56)"/>
<path d="M0 0 C0.66 0.66 1.32 1.32 2 2 C2.33 1.34 2.66 0.68 3 0 C3.99 0 4.98 0 6 0 C6.66 2.31 7.32 4.62 8 7 C2.25 5.25 2.25 5.25 0 3 C0 2.01 0 1.02 0 0 Z " fill="#1A191A" transform="translate(191,58)"/>
<path d="M0 0 C2.8125 0.1875 2.8125 0.1875 6 1 C7.875 3.5625 7.875 3.5625 9 6 C8.01 6.33 7.02 6.66 6 7 C4.02 4.69 2.04 2.38 0 0 Z " fill="#E5E4E4" transform="translate(179,33)"/>
<path d="M0 0 C3.93673644 1.31224548 6.22719294 2.91910327 9 6 C7.02 6 5.04 6 3 6 C2.01 4.02 1.02 2.04 0 0 Z " fill="#DDDCDC" transform="translate(105,93)"/>
<path d="M0 0 C2 1.8125 2 1.8125 4 4 C4 4.99 4 5.98 4 7 C2.125 6.75 2.125 6.75 0 6 C-1.25 3.9375 -1.25 3.9375 -2 2 C-1.34 2 -0.68 2 0 2 C0 1.34 0 0.68 0 0 Z " fill="#282828" transform="translate(49,73)"/>
<path d="M0 0 C0.33 0.66 0.66 1.32 1 2 C2.32 2 3.64 2 5 2 C5 2.99 5 3.98 5 5 C1.85375007 5.26218749 0.38162983 5.24754367 -2.3125 3.5 C-2.869375 3.005 -3.42625 2.51 -4 2 C-2.68 2 -1.36 2 0 2 C0 1.34 0 0.68 0 0 Z " fill="#8B8B8B" transform="translate(81,25)"/>
<path d="M0 0 C0.99 0.33 1.98 0.66 3 1 C0.36 2.98 -2.28 4.96 -5 7 C-5.33 6.34 -5.66 5.68 -6 5 C-4.06745228 2.9754262 -2.36841312 1.57894208 0 0 Z " fill="#E4E3E2" transform="translate(61,27)"/>
<path d="M0 0 C0.99 0.66 1.98 1.32 3 2 C2.67 3.65 2.34 5.3 2 7 C0.62437146 5.71034824 -0.70766393 4.37310707 -2 3 C-2 2.34 -2 1.68 -2 1 C-1.34 0.67 -0.68 0.34 0 0 Z " fill="#0F100E" transform="translate(50,140)"/>
<path d="M0 0 C3 2 3 2 3.6875 4.125 C3.790625 4.74375 3.89375 5.3625 4 6 C3.01 6.495 3.01 6.495 2 7 C0.68 5.68 -0.64 4.36 -2 3 C-1.34 2.67 -0.68 2.34 0 2 C0 1.34 0 0.68 0 0 Z " fill="#232323" transform="translate(62,153)"/>
<path d="M0 0 C2 3.75 2 3.75 2 6 C0.02 6 -1.96 6 -4 6 C-2.68 4.02 -1.36 2.04 0 0 Z " fill="#CFCFCF" transform="translate(161,49)"/>
<path d="M0 0 C1.4540625 0.0309375 1.4540625 0.0309375 2.9375 0.0625 C2.2775 1.3825 1.6175 2.7025 0.9375 4.0625 C-0.0525 4.0625 -1.0425 4.0625 -2.0625 4.0625 C-2.0625 3.4025 -2.0625 2.7425 -2.0625 2.0625 C-2.7225 1.7325 -3.3825 1.4025 -4.0625 1.0625 C-3.0625 0.0625 -3.0625 0.0625 0 0 Z " fill="#111111" transform="translate(101.0625,22.9375)"/>
<path d="M0 0 C1.32 1.32 2.64 2.64 4 4 C2.02 4.99 2.02 4.99 0 6 C-0.38218767 4.34385343 -0.71395102 2.67542976 -1 1 C-0.67 0.67 -0.34 0.34 0 0 Z " fill="#161616" transform="translate(53,144)"/>
</svg>
